<svg width="1200" height="1200" viewBox="0 0 1182 1182" xmlns="http://www.w3.org/2000/svg" fill-rule="evenodd" clip-rule="evenodd" stroke-linecap="round" stroke-linejoin="round" stroke-miterlimit="1.5">
  <circle cx="889.171" cy="792.52" r="359.143" fill="url(#_Radial1)" transform="matrix(1 0 0 1 -297.76 -197.391)"/>
  <path d="M500.45 377.582c58.996-23.464 117.868-23.504 176.614-.254M497.131 363.339l12.446 31.042c53.212-22.385 107.29-21.05 162.174 2.38l12.22-33.438" fill="none" stroke="#c7c7c7" stroke-width="3.13"/>
  <path d="M690.547 295.608c200.786 0 363.803 163.013 363.803 363.799 0 200.786-163.017 363.803-363.803 363.803S326.748 860.193 326.748 659.407s163.013-363.799 363.799-363.799zm0 80.036c156.613 0 283.763 127.15 283.763 283.763 0 156.613-127.15 283.763-283.763 283.763-156.613 0-283.763-127.15-283.763-283.763 0-156.613 127.15-283.763 283.763-283.763z" fill="#9fffb6" stroke="#c7c7c7" stroke-width="67.86" transform="matrix(.01427 -.00355 .00357 .01432 566.05 362.985)"/>
  <path d="M690.547 295.608c200.786 0 363.803 163.013 363.803 363.799 0 200.786-163.017 363.803-363.803 363.803S326.748 860.193 326.748 659.407s163.013-363.799 363.799-363.799zm0 80.036c156.613 0 283.763 127.15 283.763 283.763 0 156.613-127.15 283.763-283.763 283.763-156.613 0-283.763-127.15-283.763-283.763 0-156.613 127.15-283.763 283.763-283.763z" fill="#9fffb6" stroke="#c7c7c7" stroke-width="67.86" transform="matrix(.01427 -.00355 .00357 .01432 582.159 362.986)"/>
  <path d="M690.547 295.608c200.786 0 363.803 163.013 363.803 363.799 0 200.786-163.017 363.803-363.803 363.803S326.748 860.193 326.748 659.407s163.013-363.799 363.799-363.799zm0 80.036c156.613 0 283.763 127.15 283.763 283.763 0 156.613-127.15 283.763-283.763 283.763-156.613 0-283.763-127.15-283.763-283.763 0-156.613 127.15-283.763 283.763-283.763z" fill="#9fffb6" stroke="#c7c7c7" stroke-width="67.86" transform="matrix(.01427 -.00355 .00357 .01432 503.45 374.726)"/>
  <path d="M690.547 295.608c200.786 0 363.803 163.013 363.803 363.799 0 200.786-163.017 363.803-363.803 363.803S326.748 860.193 326.748 659.407s163.013-363.799 363.799-363.799zm0 80.036c156.613 0 283.763 127.15 283.763 283.763 0 156.613-127.15 283.763-283.763 283.763-156.613 0-283.763-127.15-283.763-283.763 0-156.613 127.15-283.763 283.763-283.763z" fill="#9fffb6" stroke="#c7c7c7" stroke-width="67.86" transform="matrix(.01427 -.00355 .00357 .01432 650.854 377.097)"/>
  <path d="M500.45 803.519c58.996 23.464 117.867 23.503 176.614.253M497.131 817.762l12.446-31.042c53.212 22.384 107.29 21.05 162.174-2.38l12.22 33.438" fill="none" stroke="#c7c7c7" stroke-width="3.13"/>
  <path d="M690.547 295.608c200.786 0 363.803 163.013 363.803 363.799 0 200.786-163.017 363.803-363.803 363.803S326.748 860.193 326.748 659.407s163.013-363.799 363.799-363.799zm0 80.036c156.613 0 283.763 127.15 283.763 283.763 0 156.613-127.15 283.763-283.763 283.763-156.613 0-283.763-127.15-283.763-283.763 0-156.613 127.15-283.763 283.763-283.763z" fill="#9fffb6" stroke="#c7c7c7" stroke-width="67.86" transform="matrix(.01427 .00355 .00357 -.01432 566.05 818.115)"/>
  <path d="M690.547 295.608c200.786 0 363.803 163.013 363.803 363.799 0 200.786-163.017 363.803-363.803 363.803S326.748 860.193 326.748 659.407s163.013-363.799 363.799-363.799zm0 80.036c156.613 0 283.763 127.15 283.763 283.763 0 156.613-127.15 283.763-283.763 283.763-156.613 0-283.763-127.15-283.763-283.763 0-156.613 127.15-283.763 283.763-283.763z" fill="#9fffb6" stroke="#c7c7c7" stroke-width="67.86" transform="matrix(.01427 .00355 .00357 -.01432 582.159 818.115)"/>
  <path d="M690.547 295.608c200.786 0 363.803 163.013 363.803 363.799 0 200.786-163.017 363.803-363.803 363.803S326.748 860.193 326.748 659.407s163.013-363.799 363.799-363.799zm0 80.036c156.613 0 283.763 127.15 283.763 283.763 0 156.613-127.15 283.763-283.763 283.763-156.613 0-283.763-127.15-283.763-283.763 0-156.613 127.15-283.763 283.763-283.763z" fill="#9fffb6" stroke="#c7c7c7" stroke-width="67.86" transform="matrix(.01427 .00355 .00357 -.01432 503.45 806.375)"/>
  <path d="M690.547 295.608c200.786 0 363.803 163.013 363.803 363.799 0 200.786-163.017 363.803-363.803 363.803S326.748 860.193 326.748 659.407s163.013-363.799 363.799-363.799zm0 80.036c156.613 0 283.763 127.15 283.763 283.763 0 156.613-127.15 283.763-283.763 283.763-156.613 0-283.763-127.15-283.763-283.763 0-156.613 127.15-283.763 283.763-283.763z" fill="#9fffb6" stroke="#c7c7c7" stroke-width="67.86" transform="matrix(.01427 .00355 .00357 -.01432 650.854 804.004)"/>
  <g>
    <path d="M375.423 686.943c-23.479-58.991-23.532-117.862-.295-176.614M361.18 690.265l31.039-12.453c-22.397-53.207-21.074-107.285 2.342-162.175l-33.44-12.213" fill="none" stroke="#c7c7c7" stroke-width="3.13"/>
    <path d="M690.547 295.608c200.786 0 363.803 163.013 363.803 363.799 0 200.786-163.017 363.803-363.803 363.803S326.748 860.193 326.748 659.407s163.013-363.799 363.799-363.799zm0 80.036c156.613 0 283.763 127.15 283.763 283.763 0 156.613-127.15 283.763-283.763 283.763-156.613 0-283.763-127.15-283.763-283.763 0-156.613 127.15-283.763 283.763-283.763z" fill="#9fffb6" stroke="#c7c7c7" stroke-width="67.86" transform="matrix(-.00356 -.01427 .01432 -.00357 360.81 621.346)"/>
    <path d="M690.547 295.608c200.786 0 363.803 163.013 363.803 363.799 0 200.786-163.017 363.803-363.803 363.803S326.748 860.193 326.748 659.407s163.013-363.799 363.799-363.799zm0 80.036c156.613 0 283.763 127.15 283.763 283.763 0 156.613-127.15 283.763-283.763 283.763-156.613 0-283.763-127.15-283.763-283.763 0-156.613 127.15-283.763 283.763-283.763z" fill="#9fffb6" stroke="#c7c7c7" stroke-width="67.86" transform="matrix(-.00356 -.01427 .01432 -.00357 360.807 605.238)"/>
    <path d="M690.547 295.608c200.786 0 363.803 163.013 363.803 363.799 0 200.786-163.017 363.803-363.803 363.803S326.748 860.193 326.748 659.407s163.013-363.799 363.799-363.799zm0 80.036c156.613 0 283.763 127.15 283.763 283.763 0 156.613-127.15 283.763-283.763 283.763-156.613 0-283.763-127.15-283.763-283.763 0-156.613 127.15-283.763 283.763-283.763z" fill="#9fffb6" stroke="#c7c7c7" stroke-width="67.86" transform="matrix(-.00356 -.01427 .01432 -.00357 372.566 683.944)"/>
    <path d="M690.547 295.608c200.786 0 363.803 163.013 363.803 363.799 0 200.786-163.017 363.803-363.803 363.803S326.748 860.193 326.748 659.407s163.013-363.799 363.799-363.799zm0 80.036c156.613 0 283.763 127.15 283.763 283.763 0 156.613-127.15 283.763-283.763 283.763-156.613 0-283.763-127.15-283.763-283.763 0-156.613 127.15-283.763 283.763-283.763z" fill="#9fffb6" stroke="#c7c7c7" stroke-width="67.86" transform="matrix(-.00356 -.01427 .01432 -.00357 374.902 536.539)"/>
  </g>
  <g>
    <path d="M805.91 684.871c24.843-58.43 26.264-117.283 4.4-176.56M820.071 688.523l-30.741-13.17c23.627-52.673 23.562-106.767 1.428-162.187l33.715-11.432" fill="none" stroke="#c7c7c7" stroke-width="3.13"/>
    <path d="M690.547 295.608c200.786 0 363.803 163.013 363.803 363.799 0 200.786-163.017 363.803-363.803 363.803S326.748 860.193 326.748 659.407s163.013-363.799 363.799-363.799zm0 80.036c156.613 0 283.763 127.15 283.763 283.763 0 156.613-127.15 283.763-283.763 283.763-156.613 0-283.763-127.15-283.763-283.763 0-156.613 127.15-283.763 283.763-283.763z" fill="#9fffb6" stroke="#c7c7c7" stroke-width="67.86" transform="matrix(.00389 -.01419 -.01424 -.0039 822.042 619.631)"/>
    <path d="M690.547 295.608c200.786 0 363.803 163.013 363.803 363.799 0 200.786-163.017 363.803-363.803 363.803S326.748 860.193 326.748 659.407s163.013-363.799 363.799-363.799zm0 80.036c156.613 0 283.763 127.15 283.763 283.763 0 156.613-127.15 283.763-283.763 283.763-156.613 0-283.763-127.15-283.763-283.763 0-156.613 127.15-283.763 283.763-283.763z" fill="#9fffb6" stroke="#c7c7c7" stroke-width="67.86" transform="matrix(.00389 -.01419 -.01424 -.0039 822.42 603.527)"/>
    <path d="M690.547 295.608c200.786 0 363.803 163.013 363.803 363.799 0 200.786-163.017 363.803-363.803 363.803S326.748 860.193 326.748 659.407s163.013-363.799 363.799-363.799zm0 80.036c156.613 0 283.763 127.15 283.763 283.763 0 156.613-127.15 283.763-283.763 283.763-156.613 0-283.763-127.15-283.763-283.763 0-156.613 127.15-283.763 283.763-283.763z" fill="#9fffb6" stroke="#c7c7c7" stroke-width="67.86" transform="matrix(.00389 -.01419 -.01424 -.0039 808.835 681.939)"/>
    <path d="M690.547 295.608c200.786 0 363.803 163.013 363.803 363.799 0 200.786-163.017 363.803-363.803 363.803S326.748 860.193 326.748 659.407s163.013-363.799 363.799-363.799zm0 80.036c156.613 0 283.763 127.15 283.763 283.763 0 156.613-127.15 283.763-283.763 283.763-156.613 0-283.763-127.15-283.763-283.763 0-156.613 127.15-283.763 283.763-283.763z" fill="#9fffb6" stroke="#c7c7c7" stroke-width="67.86" transform="matrix(.00389 -.01419 -.01424 -.0039 809.926 534.52)"/>
  </g>
  <g>
    <path d="M588.612 169.122c232.593 0 421.434 188.836 421.434 421.429 0 232.593-188.84 421.434-421.433 421.434s-421.43-188.84-421.43-421.433 188.836-421.43 421.429-421.43zm0 4.215c230.267 0 417.217 186.947 417.218 417.214 0 230.268-186.95 417.218-417.217 417.218S171.398 820.82 171.397 590.552c0-230.267 186.948-417.215 417.215-417.215z" fill="#9fffb6" stroke="#e9cfd4" stroke-width=".9962325999999999"/>
  </g>
  <g>
    <path d="M690.547 295.608c200.786 0 363.803 163.013 363.803 363.799 0 200.786-163.017 363.803-363.803 363.803S326.748 860.193 326.748 659.407s163.013-363.799 363.799-363.799zm0 3.638c198.778 0 360.163 161.383 360.163 360.161 0 198.779-161.385 360.163-360.163 360.163-198.778 0-360.161-161.384-360.161-360.163 0-198.778 161.383-360.161 360.161-360.161z" fill="#9fffb6" stroke="#e9cfd4" stroke-width="1.71" transform="matrix(.58693 0 0 .58295 186.105 206.148)"/>
  </g>
  <g>
    <path d="M690.547 295.608c200.786 0 363.803 163.013 363.803 363.799 0 200.786-163.017 363.803-363.803 363.803S326.748 860.193 326.748 659.407s163.013-363.799 363.799-363.799zm0 80.036c156.613 0 283.763 127.15 283.763 283.763 0 156.613-127.15 283.763-283.763 283.763-156.613 0-283.763-127.15-283.763-283.763 0-156.613 127.15-283.763 283.763-283.763z" fill="#9fffb6" stroke="#d6f2d3" stroke-width="38.02" transform="matrix(.02548 -.00634 .00636 .02557 457.797 479.195)"/>
    <path d="M505.259 445.099L365.197 226.721" fill="none" stroke="#d6f2d3" stroke-width="3.03" transform="matrix(.98232 -.22986 .26086 .98933 -138.85 161.432)"/>
    <path d="M690.547 295.608c200.786 0 363.803 163.013 363.803 363.799 0 200.786-163.017 363.803-363.803 363.803S326.748 860.193 326.748 659.407s163.013-363.799 363.799-363.799zm0 80.036c156.613 0 283.763 127.15 283.763 283.763 0 156.613-127.15 283.763-283.763 283.763-156.613 0-283.763-127.15-283.763-283.763 0-156.613 127.15-283.763 283.763-283.763z" fill="#9fffb6" stroke="#d6f2d3" stroke-width="67.86" transform="matrix(.01427 -.00355 .00357 .01432 404.47 227.77)"/>
    <path d="M690.547 295.608c200.786 0 363.803 163.013 363.803 363.799 0 200.786-163.017 363.803-363.803 363.803S326.748 860.193 326.748 659.407s163.013-363.799 363.799-363.799zm0 80.036c156.613 0 283.763 127.15 283.763 283.763 0 156.613-127.15 283.763-283.763 283.763-156.613 0-283.763-127.15-283.763-283.763 0-156.613 127.15-283.763 283.763-283.763z" fill="#9fffb6" stroke="#d6f2d3" stroke-width="67.86" transform="matrix(.01427 -.00355 .00357 .01432 204.011 432.636)"/>
    <path d="M181.965 437.473l36.86 16.769c18.692-48.038 48.086-93.3 82.748-131.121 37.568-34.778 81.33-63.459 131.35-85.98l-13.92-29.691" fill="none" stroke="#d6f2d3" stroke-width="3.13"/>
    <path d="M690.547 295.608c200.786 0 363.803 163.013 363.803 363.799 0 200.786-163.017 363.803-363.803 363.803S326.748 860.193 326.748 659.407s163.013-363.799 363.799-363.799zm0 80.036c156.613 0 283.763 127.15 283.763 283.763 0 156.613-127.15 283.763-283.763 283.763-156.613 0-283.763-127.15-283.763-283.763 0-156.613 127.15-283.763 283.763-283.763z" fill="#9fffb6" stroke="#d6f2d3" stroke-width="67.86" transform="matrix(.01435 .00321 .00322 -.0144 411.956 963.991)"/>
    <path d="M690.547 295.608c200.786 0 363.803 163.013 363.803 363.799 0 200.786-163.017 363.803-363.803 363.803S326.748 860.193 326.748 659.407s163.013-363.799 363.799-363.799zm0 80.036c156.613 0 283.763 127.15 283.763 283.763 0 156.613-127.15 283.763-283.763 283.763-156.613 0-283.763-127.15-283.763-283.763 0-156.613 127.15-283.763 283.763-283.763z" fill="#9fffb6" stroke="#d6f2d3" stroke-width="67.86" transform="matrix(.01435 .00321 .00322 -.0144 206.703 763.93)"/>
    <path d="M184.548 759.616L221 741.98c19.824 47.582 50.282 92.135 85.83 129.124 38.38 33.88 82.81 61.515 133.348 82.846l-13.212 30.012" fill="none" stroke="#d6f2d3" stroke-width="3.13"/>
    <g>
      <path d="M690.547 295.608c200.786 0 363.803 163.013 363.803 363.799 0 200.786-163.017 363.803-363.803 363.803S326.748 860.193 326.748 659.407s163.013-363.799 363.799-363.799zm0 80.036c156.613 0 283.763 127.15 283.763 283.763 0 156.613-127.15 283.763-283.763 283.763-156.613 0-283.763-127.15-283.763-283.763 0-156.613 127.15-283.763 283.763-283.763z" fill="#9fffb6" stroke="#d6f2d3" stroke-width="67.86" transform="matrix(.0039 .01418 -.01423 .00392 967.013 412.906)"/>
      <path d="M690.547 295.608c200.786 0 363.803 163.013 363.803 363.799 0 200.786-163.017 363.803-363.803 363.803S326.748 860.193 326.748 659.407s163.013-363.799 363.799-363.799zm0 80.036c156.613 0 283.763 127.15 283.763 283.763 0 156.613-127.15 283.763-283.763 283.763-156.613 0-283.763-127.15-283.763-283.763 0-156.613 127.15-283.763 283.763-283.763z" fill="#9fffb6" stroke="#d6f2d3" stroke-width="67.86" transform="matrix(.0039 .01418 -.01423 .00392 758.66 215.21)"/>
      <path d="M752.104 195.494l-14.4 35.49c48.536 17.357 93.25 47.308 132.014 80.911 35.803 36.593 65.683 79.546 89.578 128.923l29.295-14.734" fill="none" stroke="#d6f2d3" stroke-width="3.13"/>
    </g>
    <g>
      <path d="M690.547 295.608c200.786 0 363.803 163.013 363.803 363.799 0 200.786-163.017 363.803-363.803 363.803S326.748 860.193 326.748 659.407s163.013-363.799 363.799-363.799zm0 80.036c156.613 0 283.763 127.15 283.763 283.763 0 156.613-127.15 283.763-283.763 283.763-156.613 0-283.763-127.15-283.763-283.763 0-156.613 127.15-283.763 283.763-283.763z" fill="#9fffb6" stroke="#d6f2d3" stroke-width="67.86" transform="matrix(.0039 -.01418 -.01423 -.00392 961.013 780.247)"/>
      <path d="M690.547 295.608c200.786 0 363.803 163.013 363.803 363.799 0 200.786-163.017 363.803-363.803 363.803S326.748 860.193 326.748 659.407s163.013-363.799 363.799-363.799zm0 80.036c156.613 0 283.763 127.15 283.763 283.763 0 156.613-127.15 283.763-283.763 283.763-156.613 0-283.763-127.15-283.763-283.763 0-156.613 127.15-283.763 283.763-283.763z" fill="#9fffb6" stroke="#d6f2d3" stroke-width="67.86" transform="matrix(.0039 -.01418 -.01423 -.00392 752.66 977.943)"/>
      <path d="M746.105 997.659l-14.4-35.49c48.536-17.357 93.249-47.308 132.014-80.911 35.803-36.593 65.682-79.546 89.577-128.923l29.295 14.734" fill="none" stroke="#d6f2d3" stroke-width="3.13"/>
    </g>
    <g>
      <path d="M690.547 295.608c200.786 0 363.803 163.013 363.803 363.799 0 200.786-163.017 363.803-363.803 363.803S326.748 860.193 326.748 659.407s163.013-363.799 363.799-363.799zm0 80.036c156.613 0 283.763 127.15 283.763 283.763 0 156.613-127.15 283.763-283.763 283.763-156.613 0-283.763-127.15-283.763-283.763 0-156.613 127.15-283.763 283.763-283.763z" fill="#9fffb6" stroke="#d6f2d3" stroke-width="40.47" transform="matrix(.02393 -.00596 .00598 .02402 674.635 476.789)"/>
      <path d="M515.75 268.51L280.066 410.43" fill="none" stroke="#d6f2d3" stroke-width="3.03" transform="matrix(.98232 -.22986 .26086 .98933 318.848 141.641)"/>
    </g>
    <g>
      <path d="M249.56 84.981l-50.038 192.218" fill="none" stroke="#d6f2d3" stroke-width="3.03" transform="matrix(.98232 -.22986 .26086 .98933 318.848 130.642)"/>
      <path d="M249.56 84.981l-50.038 192.218" fill="none" stroke="#d6f2d3" stroke-width="2.98" transform="matrix(.98223 .24538 .26119 -1.05766 317.783 1067.826)"/>
      <path d="M-270.889 400.83l191.573 46.006" fill="none" stroke="#d6f2d3" stroke-width="3.03" transform="matrix(.98232 -.22986 .26086 .98933 316.848 141.641)"/>
      <path d="M-270.889 400.83l191.573 46.006" fill="none" stroke="#aed8a8" stroke-width="3.03" transform="matrix(.9819 -.22986 .26074 .98932 987.164 141.642)"/>
    </g>
  </g>
  <defs>
    <radialGradient id="_Radial1" cx="0" cy="0" r="1" gradientUnits="userSpaceOnUse" gradientTransform="scale(791.902) rotate(-47.107 1.725 -.78)">
      <stop offset="0" stop-color="#0e1f2d"/>
      <stop offset=".55" stop-color="#04090d" stop-opacity=".29"/>
      <stop offset="1" stop-opacity="0"/>
    </radialGradient>
  </defs>
</svg>