<svg width="100" height="100" viewBox="0 0 1182 1182" xmlns="http://www.w3.org/2000/svg" fill-rule="evenodd" clip-rule="evenodd" stroke-linecap="round" stroke-linejoin="round" stroke-miterlimit="1.5">
  <path d="M591.41 90.295c278.626 0 504.832 226.208 504.832 504.833 0 278.626-226.206 504.832-504.831 504.832-278.626 0-504.834-226.206-504.834-504.832 0-278.625 226.208-504.833 504.834-504.833zm0 19.199c268.03 0 485.633 217.606 485.633 485.634 0 268.03-217.603 485.632-485.632 485.632-268.03 0-485.635-217.602-485.635-485.632 0-268.028 217.606-485.634 485.635-485.634z" fill="#fff" stroke="#c7c7c7" stroke-width="3.1287510000000003"/>
  <path d="M590.55 212.945c210.934 0 382.184 171.25 382.184 382.184 0 210.933-171.25 382.183-382.183 382.183s-382.184-171.25-382.184-382.183 171.25-382.184 382.184-382.184zm0 14.535c202.912 0 367.648 164.738 367.648 367.649S793.462 962.776 590.551 962.776c-202.91 0-367.65-164.736-367.65-367.647 0-202.91 164.74-367.65 367.65-367.65z" fill="#fff" stroke="#c7c7c7" stroke-width="3.1257827999999996"/>
</svg>