<svg  width="1200" height="1200" viewBox="0 0 1182 1182" xmlns="http://www.w3.org/2000/svg" fill-rule="evenodd" clip-rule="evenodd" stroke-linecap="round" stroke-linejoin="round" stroke-miterlimit="1.5">
  <circle cx="889.171" cy="792.52" r="359.143" fill="url(#_Radial1)" transform="matrix(1 0 0 1 -297.76 -197.391)"/>
  <path d="M500.046 387.33c58.997-23.465 117.868-23.504 176.615-.254M496.728 373.086l12.445 31.042c53.213-22.384 107.29-21.049 162.175 2.38l12.22-33.437" fill="none" stroke="#c7c7c7" stroke-width="3.13"/>
  <path d="M690.547 295.608c200.786 0 363.803 163.013 363.803 363.799 0 200.786-163.017 363.803-363.803 363.803S326.748 860.193 326.748 659.407s163.013-363.799 363.799-363.799zm0 80.036c156.613 0 283.763 127.15 283.763 283.763 0 156.613-127.15 283.763-283.763 283.763-156.613 0-283.763-127.15-283.763-283.763 0-156.613 127.15-283.763 283.763-283.763z" fill="#9fffb6" stroke="#c7c7c7" stroke-width="67.86" transform="matrix(.01427 -.00355 .00357 .01432 565.647 372.733)"/>
  <path d="M690.547 295.608c200.786 0 363.803 163.013 363.803 363.799 0 200.786-163.017 363.803-363.803 363.803S326.748 860.193 326.748 659.407s163.013-363.799 363.799-363.799zm0 80.036c156.613 0 283.763 127.15 283.763 283.763 0 156.613-127.15 283.763-283.763 283.763-156.613 0-283.763-127.15-283.763-283.763 0-156.613 127.15-283.763 283.763-283.763z" fill="#9fffb6" stroke="#c7c7c7" stroke-width="67.86" transform="matrix(.01427 -.00355 .00357 .01432 581.755 372.734)"/>
  <path d="M690.547 295.608c200.786 0 363.803 163.013 363.803 363.799 0 200.786-163.017 363.803-363.803 363.803S326.748 860.193 326.748 659.407s163.013-363.799 363.799-363.799zm0 80.036c156.613 0 283.763 127.15 283.763 283.763 0 156.613-127.15 283.763-283.763 283.763-156.613 0-283.763-127.15-283.763-283.763 0-156.613 127.15-283.763 283.763-283.763z" fill="#9fffb6" stroke="#c7c7c7" stroke-width="67.86" transform="matrix(.01427 -.00355 .00357 .01432 503.047 384.474)"/>
  <path d="M690.547 295.608c200.786 0 363.803 163.013 363.803 363.799 0 200.786-163.017 363.803-363.803 363.803S326.748 860.193 326.748 659.407s163.013-363.799 363.799-363.799zm0 80.036c156.613 0 283.763 127.15 283.763 283.763 0 156.613-127.15 283.763-283.763 283.763-156.613 0-283.763-127.15-283.763-283.763 0-156.613 127.15-283.763 283.763-283.763z" fill="#9fffb6" stroke="#c7c7c7" stroke-width="67.86" transform="matrix(.01427 -.00355 .00357 .01432 650.451 386.845)"/>
  <path d="M500.046 814.957c58.997 23.464 117.868 23.504 176.615.253M496.728 829.2l12.445-31.042c53.212 22.384 107.29 21.05 162.175-2.38l12.22 33.438" fill="none" stroke="#c7c7c7" stroke-width="3.13"/>
  <path d="M690.547 295.608c200.786 0 363.803 163.013 363.803 363.799 0 200.786-163.017 363.803-363.803 363.803S326.748 860.193 326.748 659.407s163.013-363.799 363.799-363.799zm0 80.036c156.613 0 283.763 127.15 283.763 283.763 0 156.613-127.15 283.763-283.763 283.763-156.613 0-283.763-127.15-283.763-283.763 0-156.613 127.15-283.763 283.763-283.763z" fill="#9fffb6" stroke="#c7c7c7" stroke-width="67.86" transform="matrix(.01427 .00355 .00357 -.01432 565.647 829.553)"/>
  <path d="M690.547 295.608c200.786 0 363.803 163.013 363.803 363.799 0 200.786-163.017 363.803-363.803 363.803S326.748 860.193 326.748 659.407s163.013-363.799 363.799-363.799zm0 80.036c156.613 0 283.763 127.15 283.763 283.763 0 156.613-127.15 283.763-283.763 283.763-156.613 0-283.763-127.15-283.763-283.763 0-156.613 127.15-283.763 283.763-283.763z" fill="#9fffb6" stroke="#c7c7c7" stroke-width="67.86" transform="matrix(.01427 .00355 .00357 -.01432 581.755 829.553)"/>
  <path d="M690.547 295.608c200.786 0 363.803 163.013 363.803 363.799 0 200.786-163.017 363.803-363.803 363.803S326.748 860.193 326.748 659.407s163.013-363.799 363.799-363.799zm0 80.036c156.613 0 283.763 127.15 283.763 283.763 0 156.613-127.15 283.763-283.763 283.763-156.613 0-283.763-127.15-283.763-283.763 0-156.613 127.15-283.763 283.763-283.763z" fill="#9fffb6" stroke="#c7c7c7" stroke-width="67.86" transform="matrix(.01427 .00355 .00357 -.01432 503.046 817.813)"/>
  <path d="M690.547 295.608c200.786 0 363.803 163.013 363.803 363.799 0 200.786-163.017 363.803-363.803 363.803S326.748 860.193 326.748 659.407s163.013-363.799 363.799-363.799zm0 80.036c156.613 0 283.763 127.15 283.763 283.763 0 156.613-127.15 283.763-283.763 283.763-156.613 0-283.763-127.15-283.763-283.763 0-156.613 127.15-283.763 283.763-283.763z" fill="#9fffb6" stroke="#c7c7c7" stroke-width="67.86" transform="matrix(.01427 .00355 .00357 -.01432 650.45 815.442)"/>
  <path d="M375.423 686.943c-23.479-58.991-23.532-117.862-.295-176.614M361.18 690.265l31.039-12.453c-22.397-53.207-21.074-107.285 2.342-162.175l-33.44-12.213" fill="none" stroke="#c7c7c7" stroke-width="3.13"/>
  <path d="M690.547 295.608c200.786 0 363.803 163.013 363.803 363.799 0 200.786-163.017 363.803-363.803 363.803S326.748 860.193 326.748 659.407s163.013-363.799 363.799-363.799zm0 80.036c156.613 0 283.763 127.15 283.763 283.763 0 156.613-127.15 283.763-283.763 283.763-156.613 0-283.763-127.15-283.763-283.763 0-156.613 127.15-283.763 283.763-283.763z" fill="#9fffb6" stroke="#c7c7c7" stroke-width="67.86" transform="matrix(-.00356 -.01427 .01432 -.00357 360.81 621.346)"/>
  <path d="M690.547 295.608c200.786 0 363.803 163.013 363.803 363.799 0 200.786-163.017 363.803-363.803 363.803S326.748 860.193 326.748 659.407s163.013-363.799 363.799-363.799zm0 80.036c156.613 0 283.763 127.15 283.763 283.763 0 156.613-127.15 283.763-283.763 283.763-156.613 0-283.763-127.15-283.763-283.763 0-156.613 127.15-283.763 283.763-283.763z" fill="#9fffb6" stroke="#c7c7c7" stroke-width="67.86" transform="matrix(-.00356 -.01427 .01432 -.00357 360.807 605.238)"/>
  <path d="M690.547 295.608c200.786 0 363.803 163.013 363.803 363.799 0 200.786-163.017 363.803-363.803 363.803S326.748 860.193 326.748 659.407s163.013-363.799 363.799-363.799zm0 80.036c156.613 0 283.763 127.15 283.763 283.763 0 156.613-127.15 283.763-283.763 283.763-156.613 0-283.763-127.15-283.763-283.763 0-156.613 127.15-283.763 283.763-283.763z" fill="#9fffb6" stroke="#c7c7c7" stroke-width="67.86" transform="matrix(-.00356 -.01427 .01432 -.00357 372.566 683.944)"/>
  <path d="M690.547 295.608c200.786 0 363.803 163.013 363.803 363.799 0 200.786-163.017 363.803-363.803 363.803S326.748 860.193 326.748 659.407s163.013-363.799 363.799-363.799zm0 80.036c156.613 0 283.763 127.15 283.763 283.763 0 156.613-127.15 283.763-283.763 283.763-156.613 0-283.763-127.15-283.763-283.763 0-156.613 127.15-283.763 283.763-283.763z" fill="#9fffb6" stroke="#c7c7c7" stroke-width="67.86" transform="matrix(-.00356 -.01427 .01432 -.00357 374.902 536.539)"/>
  <g>
    <path d="M800.653 686.947c23.479-58.991 23.532-117.862.295-176.614M814.896 690.269l-31.039-12.453c22.397-53.207 21.074-107.285-2.342-162.175l33.44-12.213" fill="none" stroke="#c7c7c7" stroke-width="3.13"/>
    <path d="M690.547 295.608c200.786 0 363.803 163.013 363.803 363.799 0 200.786-163.017 363.803-363.803 363.803S326.748 860.193 326.748 659.407s163.013-363.799 363.799-363.799zm0 80.036c156.613 0 283.763 127.15 283.763 283.763 0 156.613-127.15 283.763-283.763 283.763-156.613 0-283.763-127.15-283.763-283.763 0-156.613 127.15-283.763 283.763-283.763z" fill="#9fffb6" stroke="#c7c7c7" stroke-width="67.86" transform="matrix(.00356 -.01427 -.01432 -.00357 815.265 621.35)"/>
    <path d="M690.547 295.608c200.786 0 363.803 163.013 363.803 363.799 0 200.786-163.017 363.803-363.803 363.803S326.748 860.193 326.748 659.407s163.013-363.799 363.799-363.799zm0 80.036c156.613 0 283.763 127.15 283.763 283.763 0 156.613-127.15 283.763-283.763 283.763-156.613 0-283.763-127.15-283.763-283.763 0-156.613 127.15-283.763 283.763-283.763z" fill="#9fffb6" stroke="#c7c7c7" stroke-width="67.86" transform="matrix(.00356 -.01427 -.01432 -.00357 815.269 605.242)"/>
    <path d="M690.547 295.608c200.786 0 363.803 163.013 363.803 363.799 0 200.786-163.017 363.803-363.803 363.803S326.748 860.193 326.748 659.407s163.013-363.799 363.799-363.799zm0 80.036c156.613 0 283.763 127.15 283.763 283.763 0 156.613-127.15 283.763-283.763 283.763-156.613 0-283.763-127.15-283.763-283.763 0-156.613 127.15-283.763 283.763-283.763z" fill="#9fffb6" stroke="#c7c7c7" stroke-width="67.86" transform="matrix(.00356 -.01427 -.01432 -.00357 803.51 683.948)"/>
    <path d="M690.547 295.608c200.786 0 363.803 163.013 363.803 363.799 0 200.786-163.017 363.803-363.803 363.803S326.748 860.193 326.748 659.407s163.013-363.799 363.799-363.799zm0 80.036c156.613 0 283.763 127.15 283.763 283.763 0 156.613-127.15 283.763-283.763 283.763-156.613 0-283.763-127.15-283.763-283.763 0-156.613 127.15-283.763 283.763-283.763z" fill="#9fffb6" stroke="#c7c7c7" stroke-width="67.86" transform="matrix(.00356 -.01427 -.01432 -.00357 801.174 536.543)"/>
  </g>
  <g>
    <path d="M489.629 197.175c225.707-56.176 454.564 81.462 510.74 307.169 56.175 225.706-81.467 454.565-307.174 510.74-225.707 56.175-454.56-81.467-510.736-307.174-56.175-225.707 81.463-454.56 307.17-510.735zm1.018 4.09c223.45-55.614 450.016 80.647 505.63 304.097 55.613 223.45-80.65 450.017-304.1 505.63-223.45 55.614-450.015-80.65-505.628-304.1-55.614-223.45 80.648-450.014 304.098-505.628z" fill="#9fffb6" stroke="#e9cfd4" stroke-width=".9962325999999999"/>
  </g>
  <g>
    <path d="M690.547 295.608c200.786 0 363.803 163.013 363.803 363.799 0 200.786-163.017 363.803-363.803 363.803S326.748 860.193 326.748 659.407s163.013-363.799 363.799-363.799zm0 3.638c198.778 0 360.163 161.383 360.163 360.161 0 198.779-161.385 360.163-360.163 360.163-198.778 0-360.161-161.384-360.161-360.163 0-198.778 161.383-360.161 360.161-360.161z" fill="#9fffb6" stroke="#e9cfd4" stroke-width="1.71" transform="matrix(.56956 -.14176 .1408 .5657 102.462 326.017)"/>
  </g>
  <g>
    <path d="M690.547 295.608c200.786 0 363.803 163.013 363.803 363.799 0 200.786-163.017 363.803-363.803 363.803S326.748 860.193 326.748 659.407s163.013-363.799 363.799-363.799zm0 80.036c156.613 0 283.763 127.15 283.763 283.763 0 156.613-127.15 283.763-283.763 283.763-156.613 0-283.763-127.15-283.763-283.763 0-156.613 127.15-283.763 283.763-283.763z" fill="#9fffb6" stroke="#d6f2d3" stroke-width="38.02" transform="matrix(.02548 -.00634 .00636 .02557 457.797 479.195)"/>
    <path d="M505.259 445.099L365.197 226.721" fill="none" stroke="#d6f2d3" stroke-width="3.03" transform="matrix(.98232 -.22986 .26086 .98933 -138.85 161.432)"/>
  </g>
  <g>
    <path d="M690.547 295.608c200.786 0 363.803 163.013 363.803 363.799 0 200.786-163.017 363.803-363.803 363.803S326.748 860.193 326.748 659.407s163.013-363.799 363.799-363.799zm0 80.036c156.613 0 283.763 127.15 283.763 283.763 0 156.613-127.15 283.763-283.763 283.763-156.613 0-283.763-127.15-283.763-283.763 0-156.613 127.15-283.763 283.763-283.763z" fill="#9fffb6" stroke="#d6f2d3" stroke-width="67.86" transform="matrix(.01427 -.00355 .00357 .01432 404.47 227.77)"/>
    <path d="M690.547 295.608c200.786 0 363.803 163.013 363.803 363.799 0 200.786-163.017 363.803-363.803 363.803S326.748 860.193 326.748 659.407s163.013-363.799 363.799-363.799zm0 80.036c156.613 0 283.763 127.15 283.763 283.763 0 156.613-127.15 283.763-283.763 283.763-156.613 0-283.763-127.15-283.763-283.763 0-156.613 127.15-283.763 283.763-283.763z" fill="#9fffb6" stroke="#d6f2d3" stroke-width="67.86" transform="matrix(.01427 -.00355 .00357 .01432 204.011 432.636)"/>
    <path d="M181.965 437.473l36.86 16.769c18.692-48.038 48.086-93.3 82.748-131.121 37.568-34.778 81.33-63.459 131.35-85.98l-13.92-29.691" fill="none" stroke="#d6f2d3" stroke-width="3.13"/>
  </g>
  <g>
    <path d="M690.547 295.608c200.786 0 363.803 163.013 363.803 363.799 0 200.786-163.017 363.803-363.803 363.803S326.748 860.193 326.748 659.407s163.013-363.799 363.799-363.799zm0 80.036c156.613 0 283.763 127.15 283.763 283.763 0 156.613-127.15 283.763-283.763 283.763-156.613 0-283.763-127.15-283.763-283.763 0-156.613 127.15-283.763 283.763-283.763z" fill="#9fffb6" stroke="#d6f2d3" stroke-width="67.86" transform="matrix(.01427 .00355 .00357 -.01432 404.47 986.339)"/>
    <path d="M690.547 295.608c200.786 0 363.803 163.013 363.803 363.799 0 200.786-163.017 363.803-363.803 363.803S326.748 860.193 326.748 659.407s163.013-363.799 363.799-363.799zm0 80.036c156.613 0 283.763 127.15 283.763 283.763 0 156.613-127.15 283.763-283.763 283.763-156.613 0-283.763-127.15-283.763-283.763 0-156.613 127.15-283.763 283.763-283.763z" fill="#9fffb6" stroke="#d6f2d3" stroke-width="67.86" transform="matrix(.01427 .00355 .00357 -.01432 204.012 781.473)"/>
    <path d="M181.965 776.636l36.86-16.769c18.693 48.038 48.086 93.3 82.748 131.12 37.569 34.779 81.331 63.46 131.35 85.98l-13.92 29.691" fill="none" stroke="#d6f2d3" stroke-width="3.13"/>
  </g>
  <g>
    <path d="M690.547 295.608c200.786 0 363.803 163.013 363.803 363.799 0 200.786-163.017 363.803-363.803 363.803S326.748 860.193 326.748 659.407s163.013-363.799 363.799-363.799zm0 80.036c156.613 0 283.763 127.15 283.763 283.763 0 156.613-127.15 283.763-283.763 283.763-156.613 0-283.763-127.15-283.763-283.763 0-156.613 127.15-283.763 283.763-283.763z" fill="#9fffb6" stroke="#d6f2d3" stroke-width="67.86" transform="matrix(.0039 .01418 -.01423 .00392 967.013 412.906)"/>
    <path d="M690.547 295.608c200.786 0 363.803 163.013 363.803 363.799 0 200.786-163.017 363.803-363.803 363.803S326.748 860.193 326.748 659.407s163.013-363.799 363.799-363.799zm0 80.036c156.613 0 283.763 127.15 283.763 283.763 0 156.613-127.15 283.763-283.763 283.763-156.613 0-283.763-127.15-283.763-283.763 0-156.613 127.15-283.763 283.763-283.763z" fill="#9fffb6" stroke="#d6f2d3" stroke-width="67.86" transform="matrix(.0039 .01418 -.01423 .00392 758.66 215.21)"/>
    <path d="M752.104 195.494l-14.4 35.49c48.536 17.357 93.25 47.308 132.014 80.911 35.803 36.593 65.683 79.546 89.578 128.923l29.295-14.734" fill="none" stroke="#d6f2d3" stroke-width="3.13"/>
  </g>
  <g>
    <path d="M690.547 295.608c200.786 0 363.803 163.013 363.803 363.799 0 200.786-163.017 363.803-363.803 363.803S326.748 860.193 326.748 659.407s163.013-363.799 363.799-363.799zm0 80.036c156.613 0 283.763 127.15 283.763 283.763 0 156.613-127.15 283.763-283.763 283.763-156.613 0-283.763-127.15-283.763-283.763 0-156.613 127.15-283.763 283.763-283.763z" fill="#9fffb6" stroke="#d6f2d3" stroke-width="67.86" transform="matrix(.0039 -.01418 -.01423 -.00392 967.012 789.246)"/>
    <path d="M690.547 295.608c200.786 0 363.803 163.013 363.803 363.799 0 200.786-163.017 363.803-363.803 363.803S326.748 860.193 326.748 659.407s163.013-363.799 363.799-363.799zm0 80.036c156.613 0 283.763 127.15 283.763 283.763 0 156.613-127.15 283.763-283.763 283.763-156.613 0-283.763-127.15-283.763-283.763 0-156.613 127.15-283.763 283.763-283.763z" fill="#9fffb6" stroke="#d6f2d3" stroke-width="67.86" transform="matrix(.0039 -.01418 -.01423 -.00392 758.66 986.943)"/>
    <path d="M752.104 1006.658l-14.4-35.489c48.536-17.357 93.25-47.309 132.014-80.912 35.803-36.593 65.682-79.546 89.577-128.923l29.295 14.735" fill="none" stroke="#d6f2d3" stroke-width="3.13"/>
  </g>
  <g>
    <path d="M690.547 295.608c200.786 0 363.803 163.013 363.803 363.799 0 200.786-163.017 363.803-363.803 363.803S326.748 860.193 326.748 659.407s163.013-363.799 363.799-363.799zm0 80.036c156.613 0 283.763 127.15 283.763 283.763 0 156.613-127.15 283.763-283.763 283.763-156.613 0-283.763-127.15-283.763-283.763 0-156.613 127.15-283.763 283.763-283.763z" fill="#9fffb6" stroke="#d6f2d3" stroke-width="40.47" transform="matrix(.02393 -.00596 .00598 .02402 674.635 476.789)"/>
    <path d="M515.75 268.51L280.066 410.43" fill="none" stroke="#d6f2d3" stroke-width="3.03" transform="matrix(.98232 -.22986 .26086 .98933 318.848 141.641)"/>
  </g>
  <g>
    <path d="M249.56 84.981l-50.038 192.218" fill="none" stroke="#d6f2d3" stroke-width="3.03" transform="matrix(.98232 -.22986 .26086 .98933 318.848 141.641)"/>
  </g>
  <g>
    <path d="M249.56 84.981l-50.038 192.218" fill="none" stroke="#d6f2d3" stroke-width="2.98" transform="matrix(.98223 .24538 .26119 -1.05766 317.783 1076.826)"/>
  </g>
  <g>
    <path d="M-270.889 400.83l191.573 46.006" fill="none" stroke="#d6f2d3" stroke-width="3.03" transform="matrix(.98232 -.22986 .26086 .98933 316.848 141.641)"/>
  </g>
  <g>
    <path d="M-270.889 400.83l191.573 46.006" fill="none" stroke="#aed8a8" stroke-width="2.95" transform="matrix(1.01802 -.2296 .27062 .9894 985.615 141.63)"/>
  </g>
  <defs>
    <radialGradient id="_Radial1" cx="0" cy="0" r="1" gradientUnits="userSpaceOnUse" gradientTransform="scale(791.902) rotate(-47.107 1.725 -.78)">
      <stop offset="0" stop-color="#0e1f2d"/>
      <stop offset=".55" stop-color="#04090d" stop-opacity=".29"/>
      <stop offset="1" stop-opacity="0"/>
    </radialGradient>
  </defs>
</svg>